<svg width="21" height="21" viewBox="0 0 21 21" fill="none" xmlns="http://www.w3.org/2000/svg">
<g opacity="0.3">
<path d="M10.4998 19.25C5.66726 19.25 1.74976 15.3324 1.74976 10.5C1.74976 5.66746 5.66726 1.74995 10.4998 1.74995C15.3322 1.74995 19.2498 5.66746 19.2498 10.5C19.2498 15.3324 15.3322 19.25 10.4998 19.25ZM10.4998 17.5C14.3658 17.5 17.4998 14.366 17.4998 10.5C17.4998 6.63396 14.3658 3.49995 10.4998 3.49995C6.63376 3.49995 3.49976 6.63396 3.49976 10.5C3.49976 14.366 6.63376 17.5 10.4998 17.5ZM10.4998 9.26253L12.9746 6.78764L14.212 8.02507L11.7372 10.5L14.212 12.9748L12.9746 14.2122L10.4998 11.7374L8.02488 14.2122L6.78745 12.9748L9.26233 10.5L6.78745 8.02507L8.02488 6.78764L10.4998 9.26253Z" fill="#00153F"/>
</g>
</svg>
