<svg width="33" height="33" viewBox="0 0 33 33" fill="none" xmlns="http://www.w3.org/2000/svg">
<circle cx="16.5" cy="16.5" r="16.5" fill="#D0DBE8"/>
<path d="M10.125 11.5417C10.125 11.1505 10.4421 10.8333 10.8333 10.8333H22.1667C22.5579 10.8333 22.875 11.1505 22.875 11.5417C22.875 11.9329 22.5579 12.25 22.1667 12.25H10.8333C10.4421 12.25 10.125 11.9329 10.125 11.5417ZM10.125 16.5C10.125 16.1088 10.4421 15.7917 10.8333 15.7917H22.1667C22.5579 15.7917 22.875 16.1088 22.875 16.5C22.875 16.8912 22.5579 17.2083 22.1667 17.2083H10.8333C10.4421 17.2083 10.125 16.8912 10.125 16.5ZM10.125 21.4583C10.125 21.0671 10.4421 20.75 10.8333 20.75H22.1667C22.5579 20.75 22.875 21.0671 22.875 21.4583C22.875 21.8495 22.5579 22.1667 22.1667 22.1667H10.8333C10.4421 22.1667 10.125 21.8495 10.125 21.4583Z" fill="#00153F"/>
</svg>
