<svg width="425" height="496" viewBox="0 0 425 496" fill="none" xmlns="http://www.w3.org/2000/svg">
<circle cx="228" cy="301.854" r="193.5" fill="#EBF2FA" stroke="#00153F"/>
<path d="M424.146 0.500003C424.146 0.223847 423.923 -1.07697e-05 423.646 3.26517e-06L419.146 2.93814e-07C418.87 -7.29262e-06 418.646 0.223855 418.646 0.49999C418.646 0.776146 418.87 1 419.146 0.99999L423.146 0.999988L423.146 4.99999C423.146 5.27615 423.37 5.5 423.646 5.49999C423.923 5.5 424.146 5.27614 424.146 5L424.146 0.500003ZM97 327.854L424 0.853552L423.293 0.146445L96.2929 327.146L97 327.854Z" fill="#00153F"/>
<path d="M211.354 285.207L421.5 75.0606L421.5 495.354L1.20703 495.353L211.354 285.207Z" fill="#EBF2FA" stroke="#00153F"/>
</svg>
