<svg width="108" height="108" viewBox="0 0 108 108" fill="none" xmlns="http://www.w3.org/2000/svg">
<rect x="0.516004" y="3.8675" width="103" height="103" transform="rotate(-1.8646 0.516004 3.8675)" fill="#EBF2FA" stroke="#00153F"/>
<path d="M71.1347 26.2406C70.9332 26.0518 70.6168 26.0621 70.428 26.2636L67.3512 29.5474C67.1624 29.7489 67.1727 30.0654 67.3742 30.2542C67.5757 30.443 67.8921 30.4327 68.081 30.2312L70.8159 27.3122L73.7348 30.0471C73.9363 30.2359 74.2527 30.2256 74.4415 30.0241C74.6304 29.8226 74.6201 29.5062 74.4185 29.3174L71.1347 26.2406ZM70.2931 26.6217L72.0168 79.5686L73.0163 79.5361L71.2926 26.5892L70.2931 26.6217Z" fill="#00153F"/>
<path d="M35.4728 81.112C35.6743 81.3008 35.9907 81.2905 36.1795 81.089L39.2562 77.8052C39.4451 77.6037 39.4348 77.2873 39.2332 77.0985C39.0317 76.9096 38.7153 76.9199 38.5265 77.1215L35.7916 80.0404L32.8726 77.3055C32.6711 77.1167 32.3547 77.127 32.1659 77.3285C31.9771 77.53 31.9874 77.8465 32.1889 78.0353L35.4728 81.112ZM33.5912 27.8166L35.3149 80.7634L36.3144 80.7309L34.5907 27.784L33.5912 27.8166Z" fill="#00153F"/>
</svg>
