<svg width="109" height="109" viewBox="0 0 109 109" fill="none" xmlns="http://www.w3.org/2000/svg">
<rect x="103.416" y="0.522147" width="103" height="103" transform="rotate(87.4023 103.416 0.522147)" fill="#EBF2FA" stroke="#00153F"/>
<path d="M41.6472 83.3434L41.4473 83.8017L41.6472 83.3434ZM66.9492 83.3438L66.7493 82.8856L66.9492 83.3438ZM83.3379 66.9547L82.8796 66.7547L83.3379 66.9547ZM83.7773 65.895L83.3121 65.7119L83.7773 65.895ZM42.7088 83.7837L42.8919 83.3184L42.7088 83.7837ZM67.1484 24.8077C66.7928 24.6526 66.4338 24.5037 66.0717 24.3612L65.7055 25.2917C66.0564 25.4298 66.4041 25.574 66.7486 25.7243L67.1484 24.8077ZM84.2426 42.5321C84.0998 42.1691 83.9505 41.8093 83.795 41.4528L82.8784 41.8527C83.0291 42.198 83.1737 42.5466 83.3121 42.8983L84.2426 42.5321ZM83.7962 67.1546C83.9513 66.799 84.1001 66.4401 84.2426 66.078L83.3121 65.7119C83.174 66.0626 83.0298 66.4103 82.8796 66.7547L83.7962 67.1546ZM66.0717 84.249C66.4341 84.1064 66.7933 83.9574 67.1491 83.8021L66.7493 82.8856C66.4046 83.0359 66.0566 83.1803 65.7055 83.3184L66.0717 84.249ZM41.4473 83.8017C41.8034 83.9571 42.163 84.1062 42.5258 84.249L42.8919 83.3184C42.5405 83.1801 42.1922 83.0357 41.8471 82.8851L41.4473 83.8017ZM24.3548 66.078C24.4974 66.4405 24.6465 66.7998 24.8017 67.1557L25.7183 66.7559C25.5679 66.4111 25.4235 66.063 25.2854 65.7118L24.3548 66.078ZM24.8021 41.4536C24.6467 41.8098 24.4976 42.1693 24.3548 42.5321L25.2854 42.8983C25.4236 42.5468 25.5681 42.1985 25.7187 41.8535L24.8021 41.4536ZM42.5258 24.3612C42.1633 24.5038 41.8041 24.6528 41.4482 24.808L41.8481 25.7246C42.1928 25.5742 42.5408 25.4299 42.8919 25.2917L42.5258 24.3612ZM35.6194 35.625C36.3555 34.8889 36.9028 33.9622 37.3641 32.995C37.8223 32.0344 38.2182 30.9818 38.6176 30.0186C39.4425 28.0296 40.2977 26.401 41.8481 25.7246L41.4482 24.808C39.4837 25.6651 38.5036 27.6831 37.6939 29.6355C37.2762 30.6429 36.905 31.6346 36.4615 32.5645C36.0211 33.4879 35.5321 34.2981 34.9123 34.9178L35.6194 35.625ZM25.7187 41.8535C26.3951 40.3031 28.0238 39.4479 30.0129 38.6231C30.9762 38.2237 32.0287 37.8278 32.9894 37.3696C33.9567 36.9083 34.8834 36.361 35.6194 35.625L34.9123 34.9178C34.2926 35.5376 33.4823 36.0266 32.559 36.467C31.629 36.9105 30.6372 37.2816 29.6298 37.6994C27.6774 38.509 25.6592 39.4891 24.8021 41.4536L25.7187 41.8535ZM27.882 54.3051C27.882 53.2637 27.6135 52.2211 27.2555 51.2107C26.8999 50.2072 26.4352 49.1828 26.0363 48.219C25.2127 46.229 24.6659 44.4727 25.2854 42.8983L24.3548 42.5321C23.5697 44.5275 24.3038 46.648 25.1123 48.6014C25.5295 49.6094 25.9687 50.5733 26.3129 51.5448C26.6547 52.5093 26.882 53.4283 26.882 54.3051H27.882ZM25.2854 65.7118C24.6659 64.1375 25.2127 62.3811 26.0363 60.3911C26.4352 59.4273 26.8999 58.4029 27.2555 57.3994C27.6135 56.389 27.882 55.3464 27.882 54.3051H26.882C26.882 55.1818 26.6547 56.1008 26.3129 57.0654C25.9687 58.0368 25.5295 59.0007 25.1123 60.0087C24.3038 61.9621 23.5697 64.0826 24.3548 66.078L25.2854 65.7118ZM35.6186 72.9845C34.8826 72.2484 33.9559 71.7011 32.9887 71.2398C32.028 70.7816 30.9755 70.3857 30.0123 69.9863C28.0233 69.1614 26.3947 68.3062 25.7183 66.7559L24.8017 67.1557C25.6588 69.1202 27.6768 70.1003 29.6292 70.91C30.6365 71.3277 31.6283 71.6989 32.5582 72.1424C33.4815 72.5828 34.2917 73.0718 34.9115 73.6916L35.6186 72.9845ZM41.8471 82.8851C40.2968 82.2087 39.4416 80.58 38.6168 78.591C38.2173 77.6277 37.8214 76.5751 37.3633 75.6145C36.902 74.6472 36.3547 73.7205 35.6186 72.9845L34.9115 73.6916C35.5313 74.3113 36.0203 75.1216 36.4607 76.0449C36.9042 76.9749 37.2753 77.9666 37.6931 78.974C38.5027 80.9264 39.4827 82.9446 41.4473 83.8017L41.8471 82.8851ZM72.9781 72.9836C72.242 73.7197 71.6946 74.6466 71.2333 75.6139C70.7752 76.5747 70.3793 77.6275 69.9798 78.5909C69.155 80.5802 68.2998 82.2091 66.7493 82.8856L67.1491 83.8021C69.1139 82.945 70.0939 80.9266 70.9036 78.9739C71.3213 77.9664 71.6924 76.9744 72.136 76.0444C72.5763 75.1209 73.0654 74.3106 73.6852 73.6907L72.9781 72.9836ZM82.8796 66.7547C82.2032 68.3053 80.5744 69.1605 78.5852 69.9853C77.6218 70.3848 76.5691 70.7807 75.6083 71.2389C74.641 71.7002 73.7142 72.2475 72.9781 72.9836L73.6852 73.6907C74.305 73.0709 75.1153 72.5819 76.0388 72.1415C76.9688 71.698 77.9607 71.3268 78.9682 70.9091C80.9208 70.0994 82.9392 69.1193 83.7962 67.1546L82.8796 66.7547ZM80.7154 54.3051C80.7154 55.3464 80.9839 56.389 81.3419 57.3994C81.6975 58.4029 82.1622 59.4274 82.5611 60.3911C83.3847 62.3811 83.9315 64.1375 83.3121 65.7119L84.2426 66.078C85.0278 64.0826 84.2936 61.9621 83.4851 60.0087C83.0679 59.0007 82.6287 58.0368 82.2845 57.0654C81.9427 56.1008 81.7154 55.1819 81.7154 54.3051H80.7154ZM72.9773 35.6243C73.7134 36.3603 74.6401 36.9076 75.6074 37.3689C76.5681 37.8271 77.6207 38.2229 78.584 38.6224C80.5731 39.4472 82.2019 40.3023 82.8784 41.8527L83.795 41.4528C82.9378 39.4883 80.9196 38.5082 78.9671 37.6987C77.9596 37.2809 76.9678 36.9098 76.0378 36.4663C75.1144 36.026 74.3042 35.5369 73.6844 34.9171L72.9773 35.6243ZM54.2987 80.7217C53.2574 80.7217 52.2148 80.9902 51.2044 81.3483C50.2009 81.7039 49.1764 82.1686 48.2127 82.5674C46.2226 83.3911 44.4663 83.9379 42.8919 83.3184L42.5258 84.249C44.5212 85.0341 46.6417 84.2999 48.5951 83.4914C49.6031 83.0742 50.5669 82.6351 51.5384 82.2908C52.503 81.949 53.4219 81.7217 54.2987 81.7217V80.7217ZM66.7486 25.7243C68.299 26.4006 69.1542 28.0292 69.9791 30.018C70.3786 30.9813 70.7745 32.0338 71.2326 32.9944C71.6939 33.9616 72.2413 34.8882 72.9773 35.6243L73.6844 34.9171C73.0646 34.2974 72.5756 33.4872 72.1352 32.5639C71.6917 31.634 71.3206 30.6423 70.9028 29.6349C70.0931 27.6826 69.113 25.6647 67.1484 24.8077L66.7486 25.7243ZM54.2987 27.8884C55.34 27.8884 56.3826 27.6199 57.393 27.2619C58.3965 26.9063 59.421 26.4416 60.3848 26.0427C62.3748 25.219 64.1311 24.6722 65.7055 25.2917L66.0717 24.3612C64.0763 23.576 61.9558 24.3102 60.0023 25.1187C58.9944 25.5359 58.0305 25.975 57.059 26.3193C56.0945 26.6611 55.1755 26.8884 54.2987 26.8884V27.8884ZM83.3121 42.8983C83.9315 44.4726 83.3847 46.229 82.5611 48.219C82.1622 49.1828 81.6975 50.2072 81.3419 51.2108C80.9839 52.2211 80.7154 53.2638 80.7154 54.3051H81.7154C81.7154 53.4283 81.9427 52.5093 82.2845 51.5448C82.6287 50.5733 83.0679 49.6094 83.4851 48.6014C84.2936 46.648 85.0278 44.5275 84.2426 42.5321L83.3121 42.8983ZM65.7055 83.3184C64.1311 83.9379 62.3748 83.3911 60.3848 82.5674C59.421 82.1686 58.3965 81.7039 57.393 81.3483C56.3826 80.9902 55.34 80.7217 54.2987 80.7217V81.7217C55.1755 81.7217 56.0945 81.949 57.059 82.2908C58.0305 82.6351 58.9944 83.0742 60.0023 83.4914C61.9558 84.2999 64.0763 85.0341 66.0717 84.249L65.7055 83.3184ZM54.2987 26.8884C53.4219 26.8884 52.503 26.6611 51.5384 26.3193C50.567 25.975 49.6031 25.5359 48.5951 25.1187C46.6417 24.3102 44.5212 23.576 42.5258 24.3612L42.8919 25.2917C44.4663 24.6722 46.2227 25.219 48.2127 26.0427C49.1764 26.4416 50.2009 26.9063 51.2044 27.2619C52.2148 27.6199 53.2574 27.8884 54.2987 27.8884V26.8884Z" fill="#00153F"/>
<circle cx="47.3268" cy="47.2033" r="1" transform="rotate(45 47.3268 47.2033)" fill="#00153F"/>
<circle cx="61.2706" cy="61.1457" r="1" transform="rotate(45 61.2706 61.1457)" fill="#00153F"/>
<path d="M47.2091 61.3937L61.3882 47.2146" stroke="#00153F" stroke-linecap="round" stroke-linejoin="round"/>
</svg>
